<svg width="76" height="17" viewBox="0 0 76 17" fill="none" xmlns="http://www.w3.org/2000/svg">
<path d="M0.5 17V0.199999H3.896V6.824H9.656V0.199999H13.04V17H9.656V10.22H3.896V17H0.5ZM2.192 15.296H2.18V8.516H11.372V15.296H11.36V1.892H11.372V8.516H2.18V1.892H2.192V15.296ZM15.9191 17V2.672L18.3911 0.199999H26.1431L28.6151 2.672V17H25.2311V12.056H19.3031V17H15.9191ZM17.6111 15.296H17.5991V10.412H26.9831V15.296H26.9711V3.38L25.4711 1.892H19.1111L17.6111 3.38V15.296ZM19.3031 8.672H25.2311V4.328L24.4991 3.596H20.0351L19.3031 4.328V8.672ZM17.5991 10.424V3.38L19.1111 1.88H25.4711L26.9831 3.38V10.424H17.5991ZM33.1764 15.296H33.1644V1.892H36.6564L40.9044 15.296H44.3604V1.892H44.3724V15.296H40.9044L36.6564 1.892H33.1764V15.296ZM31.4844 17V0.199999H38.0004L42.1524 13.556H42.6684V0.199999H46.0644V17H39.5484L35.3724 3.608H34.8804V17H31.4844ZM51.4145 17L48.9425 14.528V0.199999H52.3385V12.872L53.0705 13.604H57.9905L58.7225 12.872V0.199999H62.1185V14.528L59.6465 17H51.4145ZM52.2425 15.296H58.8185L60.4265 13.748V1.892V13.748L58.8185 15.296H52.2425L50.6345 13.724V1.892V13.724L52.2425 15.296ZM65 17V0.199999H68.396V13.604H75.692V17H65ZM66.704 15.296H74.06H66.704V1.892V15.296Z" fill="black"/>
</svg>
